<?xml version="1.0" encoding="iso-8859-1"?>
<!-- Generator: Adobe Illustrator 19.0.0, SVG Export Plug-In . SVG Version: 6.00 Build 0)  -->
<svg version="1.1" id="Layer_1" xmlns="http://www.w3.org/2000/svg" xmlns:xlink="http://www.w3.org/1999/xlink" x="0px" y="0px"
	 viewBox="0 0 490 490" style="enable-background:new 0 0 490 490;" xml:space="preserve">
<g>
	<g>
		<g>
			<path d="M480,50h-55V10c0-5.523-4.477-10-10-10h-60c-5.523,0-10,4.477-10,10v40h-60V10c0-5.523-4.477-10-10-10h-60
				c-5.523,0-10,4.477-10,10v40h-60V10c0-5.523-4.477-10-10-10H75c-5.523,0-10,4.477-10,10v40H10C4.477,50,0,54.477,0,60v95h490V60
				C490,54.477,485.523,50,480,50z M125,80H85V20h40V80z M265,80h-40V20h40V80z M405,80h-40V20h40V80z"/>
			<path d="M0,480c0,5.523,4.477,10,10,10h470c5.523,0,10-4.477,10-10V177H0V480z M362.5,214c0-4.142,3.358-7.5,7.5-7.5h50
				c4.142,0,7.5,3.358,7.5,7.5v50c0,4.142-3.358,7.5-7.5,7.5h-50c-4.142,0-7.5-3.358-7.5-7.5V214z M362.5,304
				c0-4.142,3.358-7.5,7.5-7.5h50c4.142,0,7.5,3.358,7.5,7.5v50c0,4.142-3.358,7.5-7.5,7.5h-50c-4.142,0-7.5-3.358-7.5-7.5V304z
				 M362.5,394c0-4.142,3.358-7.5,7.5-7.5h50c4.142,0,7.5,3.358,7.5,7.5v50c0,4.142-3.358,7.5-7.5,7.5h-50
				c-4.142,0-7.5-3.358-7.5-7.5V394z M262.5,214c0-4.142,3.358-7.5,7.5-7.5h50c4.142,0,7.5,3.358,7.5,7.5v50
				c0,4.142-3.358,7.5-7.5,7.5h-50c-4.142,0-7.5-3.358-7.5-7.5V214z M262.5,304c0-4.142,3.358-7.5,7.5-7.5h50
				c4.142,0,7.5,3.358,7.5,7.5v50c0,4.142-3.358,7.5-7.5,7.5h-50c-4.142,0-7.5-3.358-7.5-7.5V304z M262.5,394
				c0-4.142,3.358-7.5,7.5-7.5h50c4.142,0,7.5,3.358,7.5,7.5v50c0,4.142-3.358,7.5-7.5,7.5h-50c-4.142,0-7.5-3.358-7.5-7.5V394z
				 M162.5,214c0-4.142,3.358-7.5,7.5-7.5h50c4.142,0,7.5,3.358,7.5,7.5v50c0,4.142-3.358,7.5-7.5,7.5h-50
				c-4.142,0-7.5-3.358-7.5-7.5V214z M162.5,304c0-4.142,3.358-7.5,7.5-7.5h50c4.142,0,7.5,3.358,7.5,7.5v50
				c0,4.142-3.358,7.5-7.5,7.5h-50c-4.142,0-7.5-3.358-7.5-7.5V304z M162.5,394c0-4.142,3.358-7.5,7.5-7.5h50
				c4.142,0,7.5,3.358,7.5,7.5v50c0,4.142-3.358,7.5-7.5,7.5h-50c-4.142,0-7.5-3.358-7.5-7.5V394z M62.5,214
				c0-4.142,3.358-7.5,7.5-7.5h50c4.142,0,7.5,3.358,7.5,7.5v50c0,4.142-3.358,7.5-7.5,7.5H70c-4.142,0-7.5-3.358-7.5-7.5V214z
				 M62.5,304c0-4.142,3.358-7.5,7.5-7.5h50c4.142,0,7.5,3.358,7.5,7.5v50c0,4.142-3.358,7.5-7.5,7.5H70c-4.142,0-7.5-3.358-7.5-7.5
				V304z M62.5,394c0-4.142,3.358-7.5,7.5-7.5h50c4.142,0,7.5,3.358,7.5,7.5v50c0,4.142-3.358,7.5-7.5,7.5H70
				c-4.142,0-7.5-3.358-7.5-7.5V394z"/>
		</g>
	</g>
</g>
<g>
</g>
<g>
</g>
<g>
</g>
<g>
</g>
<g>
</g>
<g>
</g>
<g>
</g>
<g>
</g>
<g>
</g>
<g>
</g>
<g>
</g>
<g>
</g>
<g>
</g>
<g>
</g>
<g>
</g>
</svg>
